<svg xmlns="http://www.w3.org/2000/svg" viewBox="0 0 48 48"><title>Clock</title><g id="Clock"><path d="M42.05,15.17a4,4,0,0,0-1-5.57L40.25,9l.58-.83a1,1,0,0,0-1.64-1.14l-.58.82c-1.06-.75-2-1.55-3.8-1.24a4.06,4.06,0,0,0-1.66.72C31.8,6.35,32,6.85,32,4a4,4,0,0,0-4-4H20a4,4,0,0,0-4,4c0,2.72.24,2.32-1.15,3.36A4,4,0,0,0,10.2,7.3l-.81.58-.58-.82A1,1,0,0,0,7.17,8.2L7.75,9l-.82.58a4,4,0,0,0-1,5.57C8,18,7.2,18,11.76,14.76l1,1.49a16.91,16.91,0,0,0-.08,25.43l-1,3A2.54,2.54,0,0,0,14.14,48c1.76,0,2.27-1.38,3.45-3.26a16.93,16.93,0,0,0,12.82,0C31.58,46.6,32.11,48,33.86,48a2.54,2.54,0,0,0,2.41-3.35l-1-3a16.91,16.91,0,0,0-.08-25.43l1-1.49C40.82,18,40.06,18,42.05,15.17Zm-6.9-6.56c1.18-.2,1.7.47,4.77,2.63a2,2,0,0,1,.5,2.78l-.58.82-6.55-4.59.57-.82A2.06,2.06,0,0,1,35.15,8.61Zm-27,6.23L7.58,14a2,2,0,0,1,.49-2.78c3.5-2.45,3.59-2.66,4.42-2.66,1.21,0,1.64.85,2.22,1.67ZM14.6,45.75a.54.54,0,0,1-.9,0c-.21-.29-.12-.32.69-2.76a16.18,16.18,0,0,0,1.39.86Zm19.77-.46a.54.54,0,0,1-.51.71c-.4,0-.37-.11-1.64-2.13A16.18,16.18,0,0,0,33.61,43ZM39,29A15,15,0,1,1,24,14,15,15,0,0,1,39,29ZM33.63,15A16.93,16.93,0,0,0,25,12.05V11h1a1,1,0,0,0,0-2H22a1,1,0,0,0,0,2h1v1.05A16.93,16.93,0,0,0,14.37,15l-1-1.38c4.29-3,4.35-2.52,2.78-4.75C18.25,7.31,18,6.93,18,4a2,2,0,0,1,2-2h8a2,2,0,0,1,2,2c0,2.92-.22,3.34,1.82,4.86l-.74,1.06a1,1,0,0,0,.24,1.4l3.28,2.3Z"/><path d="M33.19,19.81a13,13,0,1,0,0,18.38A13,13,0,0,0,33.19,19.81ZM34,30h1a11,11,0,0,1-2.5,6l-.67-.67a1,1,0,0,0-1.42,1.42l.67.67A11,11,0,0,1,25,40V39a1,1,0,0,0-2,0v1a11,11,0,0,1-6-2.5l.67-.67a1,1,0,0,0-1.42-1.42l-.67.67a11,11,0,0,1-2.5-6H14a1,1,0,0,0,0-2h-.95a11,11,0,0,1,2.5-6c.61.61.85,1,1.38,1a1,1,0,0,0,.71-1.71L17,20.55a11,11,0,0,1,6-2.5V19a1,1,0,0,0,2,0v-.95a11,11,0,0,1,6,2.5l-.67.67a1,1,0,0,0,.71,1.71c.5,0,.65-.24,1.38-1A11,11,0,0,1,35,28H34A1,1,0,0,0,34,30Z"/><path d="M28,28H25.72c-.91-1.56-.72,1.16-.72-5a1,1,0,0,0-2,0v4.28A2,2,0,1,0,25.72,30H28A1,1,0,0,0,28,28Z"/></g></svg>