<?xml version="1.0" encoding="utf-8"?>
<!-- Generator: Adobe Illustrator 23.0.3, SVG Export Plug-In . SVG Version: 6.00 Build 0)  -->
<svg version="1.1" id="Layer_1" xmlns="http://www.w3.org/2000/svg" xmlns:xlink="http://www.w3.org/1999/xlink" x="0px" y="0px"
	 viewBox="0 0 32 32" style="enable-background:new 0 0 32 32;" xml:space="preserve">
<g>
	<g>
		<path d="M16,20c-4.9624023,0-9-4.0371094-9-9s4.0375977-9,9-9s9,4.0371094,9,9S20.9624023,20,16,20z M16,4
			c-3.8598633,0-7,3.140625-7,7s3.1401367,7,7,7s7-3.140625,7-7S19.8598633,4,16,4z"/>
	</g>
	<g>
		<path d="M16,30c-0.5522461,0-1-0.4472656-1-1V19c0-0.5527344,0.4477539-1,1-1s1,0.4472656,1,1v10
			C17,29.5527344,16.5522461,30,16,30z"/>
	</g>
	<g>
		<path d="M19,26h-6c-0.5522461,0-1-0.4472656-1-1s0.4477539-1,1-1h6c0.5522461,0,1,0.4472656,1,1S19.5522461,26,19,26z"/>
	</g>
</g>
</svg>
