<?xml version="1.0" encoding="utf-8"?>
<!-- Generator: Adobe Illustrator 23.0.3, SVG Export Plug-In . SVG Version: 6.00 Build 0)  -->
<svg version="1.1" id="Layer_1" xmlns="http://www.w3.org/2000/svg" xmlns:xlink="http://www.w3.org/1999/xlink" x="0px" y="0px"
	 viewBox="0 0 32 32" style="enable-background:new 0 0 32 32;" xml:space="preserve">
<g>
	<g>
		<path d="M11.9287109,27.0712891c-1.8696289,0-3.6274414-0.7285156-4.9492188-2.0507813
			c-1.3222656-1.3222656-2.050293-3.0791016-2.050293-4.9492188s0.7280273-3.6279297,2.050293-4.9501953l0,0
			c2.7290039-2.7275391,7.1689453-2.7294922,9.8989258,0c1.3222656,1.3222656,2.050293,3.0800781,2.050293,4.9501953
			s-0.7280273,3.6269531-2.050293,4.9492188C15.5566406,26.3427734,13.7988281,27.0712891,11.9287109,27.0712891z
			 M8.3935547,16.5351563c-0.9443359,0.9443359-1.4643555,2.2001953-1.4643555,3.5361328
			c0,1.3349609,0.5200195,2.5908203,1.4643555,3.5351563s2.199707,1.4648438,3.5351563,1.4648438
			c1.3359375,0,2.5913086-0.5205078,3.5356445-1.4648438s1.4643555-2.2001953,1.4643555-3.5351563
			c0-1.3359375-0.5200195-2.5917969-1.4643555-3.5361328C13.5146484,14.5849609,10.3432617,14.5869141,8.3935547,16.5351563
			L8.3935547,16.5351563z"/>
	</g>
	<g>
		<path d="M26.0712891,12.2939453c-0.5522461,0-1-0.4472656-1-1V6.9287109h-4.3652344c-0.5522461,0-1-0.4472656-1-1s0.4477539-1,1-1
			h5.3652344c0.5522461,0,1,0.4472656,1,1v5.3652344C27.0712891,11.8466797,26.6235352,12.2939453,26.0712891,12.2939453z"/>
	</g>
	<g>
		<path d="M16.1713867,16.828125c-0.2558594,0-0.5117188-0.0976563-0.7070313-0.2929688
			c-0.390625-0.390625-0.390625-1.0234375,0-1.4140625l9.8999023-9.8994141c0.390625-0.390625,1.0234375-0.390625,1.4140625,0
			s0.390625,1.0234375,0,1.4140625l-9.8999023,9.8994141C16.6831055,16.7304688,16.4272461,16.828125,16.1713867,16.828125z"/>
	</g>
</g>
</svg>
